33D32945 STP File, STP Format Version 1.0

SECTION Graph
Nodes 40
Edges 80
E 15 21 6
E 33 36 8
E 24 33 1
E 5 10 5
E 9 17 8
E 15 23 9
E 12 36 10
E 11 16 1
E 13 19 5
E 9 12 7
E 23 38 10
E 27 29 3
E 30 34 8
E 25 38 4
E 4 18 2
E 1 3 6
E 10 15 2
E 2 38 1
E 5 9 8
E 1 14 3
E 11 34 9
E 3 5 10
E 12 35 7
E 14 32 8
E 2 6 9
E 30 31 6
E 2 24 3
E 14 16 6
E 18 32 5
E 12 28 5
E 21 40 10
E 2 26 7
E 6 17 1
E 13 32 9
E 15 29 3
E 12 21 1
E 14 18 5
E 38 40 1
E 15 38 3
E 7 34 3
E 23 30 3
E 1 2 2
E 17 20 8
E 9 25 4
E 11 40 9
E 24 34 1
E 4 28 4
E 1 4 4
E 2 3 8
E 9 18 2
E 3 4 5
E 1 34 2
E 12 16 10
E 16 32 4
E 4 12 10
E 17 24 10
E 36 37 6
E 28 33 5
E 11 26 7
E 5 40 5
E 7 13 9
E 1 27 1
E 24 29 3
E 18 22 1
E 18 31 7
E 10 11 7
E 12 39 3
E 30 32 2
E 6 7 9
E 33 34 2
E 15 37 4
E 16 36 2
E 20 27 2
E 5 8 1
E 10 13 3
E 11 12 4
E 4 37 2
E 11 30 4
E 7 8 1
E 1 22 9
END

SECTION Terminals
Terminals 8
T 3
T 16
T 10
T 40
T 1
T 23
T 8
T 19
END

EOF
